<svg width="17" height="28" viewBox="0 0 17 28" fill="none" xmlns="http://www.w3.org/2000/svg">
<path d="M15.0611 1H1.64887C1.2912 1 1.00125 1.28995 1.00125 1.64762V26.0824C1.00125 26.4401 1.2912 26.73 1.64887 26.73H15.0611C15.4188 26.73 15.7087 26.4401 15.7087 26.0824V1.64762C15.7087 1.28995 15.4188 1 15.0611 1Z" stroke="#999999" stroke-linecap="round" stroke-linejoin="round"/>
<path d="M1.00125 20.1631H15.6893" stroke="#999999" stroke-linecap="round" stroke-linejoin="round"/>
<path d="M1.00125 4.38708H15.6893" stroke="#999999" stroke-linecap="round" stroke-linejoin="round"/>
<path d="M9.00584 23.2263C9.00584 23.5631 8.73384 23.8351 8.39708 23.8351C8.06032 23.8351 7.78831 23.5631 7.78831 23.2263C7.78831 22.8896 8.06032 22.6176 8.39708 22.6176C8.73384 22.6176 9.00584 22.8896 9.00584 23.2263Z" stroke="#999999" stroke-linecap="round" stroke-linejoin="round"/>
</svg>
