<svg width="21" height="24" viewBox="0 0 21 24" fill="none" xmlns="http://www.w3.org/2000/svg">
<path d="M19.4037 9.58057H1.76682C1.34332 9.58057 1 9.92388 1 10.3474V22.2331C1 22.6566 1.34332 22.9999 1.76682 22.9999H19.4037C19.8272 22.9999 20.1705 22.6566 20.1705 22.2331V10.3474C20.1705 9.92388 19.8272 9.58057 19.4037 9.58057Z" stroke="#999999" stroke-linecap="round" stroke-linejoin="round"/>
<path d="M5.98431 9.58071V5.60092C5.98431 3.05891 8.04322 1 10.5852 1C13.1272 1 15.1861 3.05891 15.1861 5.60092V9.58071" stroke="#999999" stroke-linecap="round" stroke-linejoin="round"/>
<path d="M11.3521 15.2015V13.2691C11.3521 12.9509 11.0952 12.694 10.7769 12.694C10.4587 12.694 10.2018 12.9509 10.2018 13.2691V15.2015C9.25864 15.4775 8.62218 16.2827 8.62218 17.2489C8.62218 18.4374 9.46951 19.4036 10.7769 19.4036C12.0844 19.4036 12.9317 18.4374 12.9317 17.2489C12.9317 16.2865 12.2952 15.4775 11.3521 15.2015Z" stroke="#999999" stroke-linecap="round" stroke-linejoin="round"/>
</svg>
